<svg xmlns="http://www.w3.org/2000/svg" width="178" height="64.001" viewBox="0 0 178 64.001">
  <path id="Subtraction_1" data-name="Subtraction 1" d="M245,77H127A29.975,29.975,0,0,1,97,47V43a29.975,29.975,0,0,1,30-30H245a29.975,29.975,0,0,1,30,30v4a29.976,29.976,0,0,1-30,30ZM197.347,29.964a15.053,15.053,0,0,0-11.471,4.614c-2.872,3.062-4.328,7.128-4.328,12.085a15.885,15.885,0,0,0,4.262,11.48,14.73,14.73,0,0,0,11.03,4.406A14.882,14.882,0,0,0,208.1,58c2.865-3.019,4.318-7.049,4.318-11.975,0-4.8-1.4-8.714-4.164-11.646A14.362,14.362,0,0,0,197.347,29.964Zm-65.193,23.8v7.031a14.986,14.986,0,0,0,4.054,1.319,26.872,26.872,0,0,0,4.933.439,23.168,23.168,0,0,0,4.8-.483,11.827,11.827,0,0,0,3.988-1.593,8.144,8.144,0,0,0,2.714-2.9,10.218,10.218,0,0,0,.428-7.778,7.858,7.858,0,0,0-1.648-2.56,12.106,12.106,0,0,0-2.582-2.011,27.8,27.8,0,0,0-3.394-1.681c-.915-.377-1.751-.751-2.483-1.11a12.569,12.569,0,0,1-1.867-1.1,4.8,4.8,0,0,1-1.187-1.186,2.511,2.511,0,0,1-.418-1.417,2.382,2.382,0,0,1,.374-1.307,3.24,3.24,0,0,1,1.055-1,5.676,5.676,0,0,1,1.67-.648,9.715,9.715,0,0,1,2.2-.231,13.924,13.924,0,0,1,1.857.132,14.555,14.555,0,0,1,1.966.407,13.537,13.537,0,0,1,1.922.692,10.618,10.618,0,0,1,1.725.967v-6.57a17.233,17.233,0,0,0-3.5-.912,28.648,28.648,0,0,0-4.361-.3,20.4,20.4,0,0,0-4.747.538,12.131,12.131,0,0,0-3.944,1.681,8.436,8.436,0,0,0-2.692,2.911,8.581,8.581,0,0,0-.988,4.23,8.239,8.239,0,0,0,1.813,5.361,13.854,13.854,0,0,0,5.5,3.757c.969.4,1.879.789,2.7,1.165a15.134,15.134,0,0,1,2.164,1.187,5.669,5.669,0,0,1,1.439,1.34,2.741,2.741,0,0,1,.527,1.648,2.533,2.533,0,0,1-.329,1.264,2.929,2.929,0,0,1-1,1.011,5.536,5.536,0,0,1-1.67.67,10.094,10.094,0,0,1-2.34.241,13.413,13.413,0,0,1-4.527-.8,13.574,13.574,0,0,1-4.153-2.406Zm85.5-23.269V62h7.1V51.145h3.384a13.6,13.6,0,0,0,9.13-2.933,9.676,9.676,0,0,0,3.416-7.68c0-3.331-1-5.865-2.977-7.531s-4.981-2.51-8.931-2.51Zm-61.743,0V36.27h8.942V62h7.119V36.27h8.987V30.491Zm41.067,25.928a7.07,7.07,0,0,1-5.757-2.725,11.514,11.514,0,0,1-2.2-7.4,11.731,11.731,0,0,1,2.2-7.416,7.176,7.176,0,0,1,5.933-2.8,6.832,6.832,0,0,1,5.712,2.725c1.386,1.807,2.088,4.372,2.088,7.624a11.39,11.39,0,0,1-2.154,7.35A7.141,7.141,0,0,1,196.973,56.419Zm30.563-10.657h-2.79V35.941h2.79a6.425,6.425,0,0,1,4.252,1.214,4.551,4.551,0,0,1,1.417,3.642,4.71,4.71,0,0,1-1.417,3.725A6.325,6.325,0,0,1,227.536,45.762Z" transform="translate(-97 -13)" fill="#fff"/>
</svg>
