<svg id="Layer_1" data-name="Layer 1" xmlns="http://www.w3.org/2000/svg" xmlns:xlink="http://www.w3.org/1999/xlink" viewBox="0 0 570 369"><defs><style>.cls-1{fill:url(#linear-gradient);}.cls-2{fill:none;stroke:#707070;}</style><linearGradient id="linear-gradient" x1="-1378.21" y1="1077.86" x2="-1377.04" y2="1078.78" gradientTransform="matrix(536, 0, 0, -369, 738707, 398058)" gradientUnits="userSpaceOnUse"><stop offset="0" stop-color="#ff8600"/><stop offset="1" stop-color="#c82b60"/></linearGradient></defs><g id="Holder"><g id="pomodoroBackground"><path class="cls-1" d="M-2.1,0H504.1C521.72,0,536,13.43,536,30V339c0,16.57-14.28,30-31.9,30H-2.1C-19.72,369-34,355.57-34,339V30C-34,13.43-19.72,0-2.1,0Z" transform="translate(34)"/><path class="cls-2" d="M-2.1.5H504.1c17.32,0,31.37,13.21,31.37,29.5V339c0,16.29-14.05,29.5-31.37,29.5H-2.1c-17.32,0-31.37-13.21-31.37-29.5V30C-33.47,13.71-19.42.5-2.1.5Z" transform="translate(34)"/></g></g></svg>