<svg xmlns="http://www.w3.org/2000/svg" viewBox="0 0 172 52"><defs><style>.cls-1,.cls-2,.cls-7{fill:none;}.cls-2,.cls-7{stroke:#707070;}.cls-2{stroke-width:5px;}.cls-3,.cls-4{isolation:isolate;}.cls-4{font-size:22px;fill:#707070;font-family:SegoeUI-Bold, Segoe UI;font-weight:700;}.cls-5{letter-spacing:0.01em;}.cls-6{letter-spacing:0.02em;}.cls-7{stroke-linecap:round;stroke-linejoin:round;stroke-width:3px;}</style></defs><g id="Layer_2" data-name="Layer 2"><g id="Layer_1-2" data-name="Layer 1"><g id="settings_button" data-name="settings button"><g id="Rectangle_11" data-name="Rectangle 11"><rect class="cls-1" width="172" height="52" rx="20"/><rect class="cls-2" x="2.5" y="2.5" width="167" height="47" rx="17.5"/></g><g id="SETTINGS" class="cls-3"><text class="cls-4" transform="translate(56 33)">S<tspan class="cls-5" x="12.33" y="0">E</tspan><tspan class="cls-6" x="24.23" y="0">T</tspan><tspan x="37.57" y="0">TINGS</tspan></text></g><g id="Icon_feather-settings" data-name="Icon feather-settings"><path id="Path_1" data-name="Path 1" class="cls-7" d="M34.5,26A4.5,4.5,0,1,1,30,21.5,4.49,4.49,0,0,1,34.5,26Z"/><path id="Path_2" data-name="Path 2" class="cls-7" d="M41.1,30.5a2.47,2.47,0,0,0,.5,2.73l.09.09a3,3,0,0,1-4.25,4.24l-.09-.09a2.51,2.51,0,0,0-4.23,1.77v.26a3,3,0,0,1-6,0h0v-.14a2.59,2.59,0,0,0-4.35-1.76l-.09.09a3,3,0,0,1-4.25-4.25l.1-.09a2.51,2.51,0,0,0-1.77-4.23H16.5a3,3,0,0,1,0-6h.14a2.59,2.59,0,0,0,1.76-4.35l-.09-.09a3,3,0,0,1,4.25-4.25l.09.1a2.48,2.48,0,0,0,2.73.49h.12A2.46,2.46,0,0,0,27,12.76V12.5a3,3,0,0,1,6,0v.14a2.49,2.49,0,0,0,2.53,2.46,2.54,2.54,0,0,0,1.7-.69l.09-.09a3,3,0,0,1,4.24,4.24l-.09.09a2.5,2.5,0,0,0-.5,2.73v.12A2.48,2.48,0,0,0,43.25,23h.25a3,3,0,0,1,0,6h-.14A2.46,2.46,0,0,0,41.1,30.5Z"/></g></g></g></g></svg>