<svg id="Layer_1" data-name="Layer 1" xmlns="http://www.w3.org/2000/svg" xmlns:xlink="http://www.w3.org/1999/xlink" viewBox="0 0 536 419"><defs><style>.cls-1{fill:url(#linear-gradient);}.cls-2{fill:none;stroke:#707070;}</style><linearGradient id="linear-gradient" x1="-1378.19" y1="1077.78" x2="-1376.99" y2="1078.73" gradientTransform="matrix(536, 0, 0, -369, 738707, 398058)" gradientUnits="userSpaceOnUse"><stop offset="0" stop-color="#ff8600"/><stop offset="1" stop-color="#c82b60"/></linearGradient></defs><g id="Holder"><g id="pomodoroBackground"><path class="cls-1" d="M30,0H506c16.57,0,30,15.25,30,34.07V384.93c0,18.82-13.43,34.07-30,34.07H30c-16.57,0-30-15.25-30-34.07V34.07C0,15.25,13.43,0,30,0Z"/><path class="cls-2" d="M30,.57H506c16.29,0,29.5,15,29.5,33.5V384.93c0,18.5-13.21,33.5-29.5,33.5H30c-16.29,0-29.5-15-29.5-33.5V34.07C.5,15.56,13.71.57,30,.57Z"/></g></g></svg>